<svg width="216" height="217" viewBox="0 0 216 217" fill="none" xmlns="http://www.w3.org/2000/svg">
<path d="M84.4238 6.09961C88.4095 2.28562 94.3147 1.28023 99.3379 3.56055L116.221 11.2246C118.363 12.197 120.688 12.7002 123.041 12.7002H150.329C154.764 12.7002 158.917 14.8787 161.438 18.5283L174.951 38.0967C176.232 39.9512 177.879 41.5234 179.791 42.7168L198.263 54.2471C202.65 56.9859 205.087 61.9909 204.537 67.1338L202.631 84.9736C202.351 87.588 202.7 90.2316 203.649 92.6836L213.272 117.543C215.11 122.289 214.122 127.667 210.717 131.449L199.179 144.267C197.308 146.344 195.996 148.863 195.366 151.587L189.452 177.155C188.346 181.936 184.734 185.74 180.017 187.091L156.997 193.685C154.784 194.318 152.728 195.408 150.962 196.884L133.409 211.547C129.854 214.517 125.024 215.457 120.614 214.036L100.005 207.396C98.3698 206.869 96.6622 206.6 94.9443 206.6H66.2197C61.7843 206.6 57.6318 204.421 55.1113 200.771L41.3174 180.798C40.2365 179.233 38.8931 177.866 37.3467 176.759L15.6924 161.253C11.8183 158.479 9.69345 153.867 10.1016 149.12L11.8252 129.072C12.0335 126.65 11.7039 124.212 10.8604 121.933L2.46289 99.2393C0.764617 94.6499 1.68328 89.5007 4.86328 85.7812L19.8086 68.3008C21.5242 66.2942 22.7339 63.9056 23.335 61.335L28.583 38.8848C29.7652 33.8282 33.7431 29.8978 38.8135 28.7764L62.8037 23.4707C65.7528 22.8185 68.4663 21.3695 70.6484 19.2812L84.4238 6.09961Z" stroke="#FF621C" stroke-width="3"/>
</svg>
