<svg width="424" height="550" viewBox="0 0 424 550" fill="none" xmlns="http://www.w3.org/2000/svg">
<path d="M115.574 0H374C401.614 0 424 22.3858 424 50V429.991C424 449.907 407.855 466.053 387.938 466.053C368.022 466.053 351.876 482.198 351.876 502.114V508.026C351.876 531.208 333.084 550 309.903 550H50C22.3858 550 3.05176e-05 527.614 3.05176e-05 500V116.405C3.05176e-05 95.2818 17.124 78.1579 38.2474 78.1579C59.3709 78.1579 76.4949 61.0339 76.4949 39.9105V39.0789C76.4949 17.4962 93.9911 0 115.574 0Z" fill="black"/>
</svg>
