<svg width="520" height="380" viewBox="0 0 520 380" fill="none" xmlns="http://www.w3.org/2000/svg">
<path d="M312.999 0H50C22.3858 0 0 22.3858 0 50V271.747C0 294.323 18.3015 312.624 40.8775 312.624H50.1518C67.6058 312.624 81.755 326.773 81.755 344.227C81.755 361.555 95.7076 375.651 113.034 375.829L469.488 379.482C497.301 379.767 520 357.299 520 329.485V182.955C520 155.341 497.614 132.955 470 132.955H414.241C387.322 132.955 365.234 111.643 364.273 84.7415L362.967 48.2136C362.005 21.3118 339.918 0 312.999 0Z" fill="white"/>
<path d="M50 1H312.999C339.379 1.00016 361.025 21.8855 361.968 48.249L363.273 84.7773C364.255 112.217 386.784 133.955 414.241 133.955H470C497.062 133.955 519 155.893 519 182.955V329.485C519 356.743 496.755 378.762 469.498 378.482L113.045 374.829C96.2666 374.657 82.755 361.007 82.7549 344.228C82.7549 326.221 68.1576 311.624 50.1514 311.624H40.8779C18.8544 311.624 1.00026 293.771 1 271.747V50C1.00001 22.9381 22.9381 1 50 1Z" stroke="#090127" stroke-opacity="0.2" stroke-width="2"/>
</svg>
