<svg width="524" height="447" viewBox="0 0 524 447" fill="none" xmlns="http://www.w3.org/2000/svg">
<path d="M474 0H50C22.3858 0 0 22.3857 0 49.9999V337.958C0 365.572 22.3858 387.958 50 387.958H136.578C146.325 387.958 155.86 390.806 164.009 396.154L211.022 427.003C214.37 429.199 217.97 430.986 221.743 432.324L253.774 443.681C265.257 447.753 277.832 447.492 289.136 442.946L316.929 431.772C319.349 430.798 321.689 429.637 323.928 428.299L379.573 395.04C387.327 390.405 396.192 387.958 405.226 387.958H474C501.614 387.958 524 365.572 524 337.958V50C524 22.3858 501.614 0 474 0Z" fill="black"/>
</svg>
