<svg width="206" height="207" viewBox="0 0 206 207" fill="none" xmlns="http://www.w3.org/2000/svg">
<path d="M79.1724 5.01559L66.4943 17.1477C64.5104 19.0461 62.0435 20.3635 59.3625 20.9564L37.0685 25.8865C31.4346 27.1324 27.0147 31.4994 25.7012 37.1179L20.8266 57.9682C20.2802 60.3053 19.181 62.4771 17.6213 64.3013L3.72327 80.5562C0.18977 84.6889 -0.830588 90.4102 1.05642 95.5096L8.88026 116.653C9.6472 118.725 9.94671 120.942 9.75737 123.144L8.15812 141.741C7.70451 147.016 10.0653 152.14 14.37 155.222L34.6283 169.728C36.0343 170.735 37.2555 171.978 38.2382 173.4L51.1336 192.074C53.9341 196.129 58.5481 198.55 63.4764 198.55H90.431C91.9928 198.55 93.545 198.794 95.0315 199.273L114.244 205.464C119.143 207.043 124.51 205.999 128.461 202.698L144.816 189.035C146.422 187.693 148.291 186.702 150.303 186.126L171.751 179.983C176.993 178.481 181.007 174.255 182.235 168.943L187.75 145.1C188.323 142.624 189.516 140.334 191.216 138.445L201.832 126.652C205.615 122.449 206.713 116.476 204.672 111.202L195.697 88.0171C194.834 85.788 194.517 83.385 194.771 81.0082L196.528 64.5681C197.138 58.8537 194.43 53.2926 189.555 50.2495L172.406 39.5448C170.667 38.4598 169.17 37.0301 168.005 35.344L155.39 17.0763C152.59 13.0209 147.976 10.6 143.047 10.6H117.505C115.366 10.6 113.252 10.1426 111.304 9.2585L95.7435 2.1945C90.1622 -0.339186 83.6009 0.777819 79.1724 5.01559Z" fill="white"/>
<path d="M79.5186 5.37695C83.7994 1.28059 90.142 0.200216 95.5371 2.64941L111.098 9.71387C113.11 10.6274 115.295 11.0996 117.505 11.0996H143.047C147.811 11.0996 152.271 13.4402 154.979 17.3604L167.594 35.6279C168.797 37.3702 170.345 38.8476 172.141 39.9688L189.29 50.6738C194.003 53.6154 196.621 58.9908 196.03 64.5146L194.273 80.9551C194.011 83.4109 194.339 85.894 195.23 88.1973L204.205 111.383C206.178 116.481 205.117 122.255 201.46 126.317L190.845 138.11C189.088 140.062 187.855 142.429 187.263 144.987L181.748 168.83C180.56 173.965 176.681 178.051 171.614 179.502L150.165 185.646C148.086 186.241 146.156 187.265 144.496 188.651L128.141 202.314C124.322 205.505 119.134 206.513 114.397 204.987L95.1846 198.797C93.6486 198.302 92.0444 198.05 90.4307 198.05H63.4766C58.7126 198.05 54.2521 195.71 51.5449 191.79L38.6494 173.116C37.634 171.646 36.3717 170.363 34.9189 169.322L14.6611 154.815C10.5 151.836 8.2178 146.883 8.65625 141.784L10.2559 123.187C10.4515 120.911 10.142 118.621 9.34961 116.479L1.52539 95.3359C-0.298646 90.4065 0.687833 84.8758 4.10352 80.8809L18.001 64.626C19.6127 62.741 20.7489 60.497 21.3135 58.082L26.1885 37.2314C27.4583 31.8004 31.7308 27.5793 37.1768 26.375L59.4707 21.4443C62.241 20.8316 64.7899 19.4704 66.8398 17.5088L79.5186 5.37695Z" stroke="#181034" stroke-opacity="0.3"/>
</svg>
