<svg width="17" height="17" viewBox="0 0 17 17" fill="none" xmlns="http://www.w3.org/2000/svg">
<path d="M3.80603 17H0.280804V5.65022H3.80603V17ZM2.04152 4.10201C0.914509 4.10201 0 3.16853 0 2.04152C0 1.50007 0.215088 0.980806 0.597947 0.597947C0.980806 0.215088 1.50007 0 2.04152 0C2.58296 0 3.10223 0.215088 3.48509 0.597947C3.86795 0.980806 4.08304 1.50007 4.08304 2.04152C4.08304 3.16853 3.16853 4.10201 2.04152 4.10201ZM16.9962 17H13.4786V11.475C13.4786 10.1583 13.452 8.46964 11.6458 8.46964C9.81295 8.46964 9.53214 9.90022 9.53214 11.3801V17H6.01071V5.65022H9.39174V7.19844H9.44107C9.91161 6.3067 11.0614 5.36562 12.7766 5.36562C16.3435 5.36562 17 7.71451 17 10.7654V17H16.9962Z" fill="#181034"/>
</svg>
