<svg width="37" height="82" viewBox="0 0 37 82" fill="none" xmlns="http://www.w3.org/2000/svg">
<path d="M7.49957 13.1161L8.77496 13.9056L8.77496 13.9056L7.49957 13.1161ZM22.7572 69.5019L23.4605 68.177L23.4605 68.177L22.7572 69.5019ZM35.4396 77.4341C36.2317 77.1913 36.6769 76.3524 36.4341 75.5604L32.4777 62.6532C32.2349 61.8611 31.396 61.4159 30.6039 61.6586C29.8119 61.9014 29.3666 62.7403 29.6094 63.5324L33.1263 75.0055L21.6532 78.5223C20.8611 78.7651 20.4159 79.604 20.6586 80.3961C20.9014 81.1881 21.7403 81.6334 22.5324 81.3906L35.4396 77.4341ZM15 1L13.7246 0.210468L6.22417 12.3266L7.49957 13.1161L8.77496 13.9056L16.2754 1.78953L15 1ZM22.7572 69.5019L22.054 70.8268L34.2968 77.3249L35 76L35.7032 74.6751L23.4605 68.177L22.7572 69.5019ZM7.49957 13.1161L6.22417 12.3266C-6.40974 32.7352 0.85265 59.5738 22.054 70.8268L22.7572 69.5019L23.4605 68.177C3.79175 57.7374 -2.94565 32.8389 8.77496 13.9056L7.49957 13.1161Z" fill="#FF621C"/>
</svg>
