<svg width="37" height="82" viewBox="0 0 37 82" fill="none" xmlns="http://www.w3.org/2000/svg">
<path d="M29.5004 13.1161L28.225 13.9056L29.5004 13.1161ZM14.2428 69.5019L13.5395 68.177L14.2428 69.5019ZM1.56039 77.4341C0.768341 77.1913 0.323074 76.3524 0.565865 75.5604L4.52234 62.6532C4.76513 61.8611 5.60404 61.4159 6.39609 61.6586C7.18814 61.9014 7.6334 62.7403 7.39061 63.5324L3.87374 75.0055L15.3468 78.5223C16.1389 78.7651 16.5841 79.604 16.3414 80.3961C16.0986 81.1881 15.2597 81.6334 14.4676 81.3906L1.56039 77.4341ZM22 1L23.2754 0.210468L30.7758 12.3266L29.5004 13.1161L28.225 13.9056L20.7246 1.78953L22 1ZM14.2428 69.5019L14.946 70.8268L2.70324 77.3249L2 76L1.29676 74.6751L13.5395 68.177L14.2428 69.5019ZM29.5004 13.1161L30.7758 12.3266C43.4097 32.7352 36.1474 59.5738 14.946 70.8268L14.2428 69.5019L13.5395 68.177C33.2083 57.7374 39.9456 32.8389 28.225 13.9056L29.5004 13.1161Z" fill="#FF621C"/>
</svg>
